<?xml version="1.0" encoding="UTF-8"?><svg id="Layer_1" xmlns="http://www.w3.org/2000/svg" viewBox="0 0 491.52 491.52"><defs><style>.cls-1{fill:#0e3b5c;}.cls-1,.cls-2{stroke-width:0px;}.cls-2{fill:#76bbff;}</style></defs><path class="cls-1" d="m354.6,491.52h-217.68C61.42,491.52,0,430.1,0,354.6v-217.68C0,61.42,61.42,0,136.92,0h217.68c75.5,0,136.92,61.42,136.92,136.92v217.68c0,75.5-61.42,136.92-136.92,136.92ZM136.92,28.17c-59.96,0-108.74,48.78-108.74,108.74v217.68c0,59.96,48.78,108.74,108.74,108.74h217.68c59.96,0,108.74-48.78,108.74-108.74v-217.68c0-59.96-48.78-108.74-108.74-108.74h-217.68Z"/><path class="cls-1" d="m362.5,380.54v37.39H127.66v-232.15h37.39v50.34c-.19.46-.33.94-.45,1.43-4.23,17.94-5.31,19.02-23.25,23.24-4.94,1.17-8.42,5.57-8.42,10.64s3.49,9.47,8.42,10.63c17.94,4.23,19.02,5.31,23.25,23.25.12.49.26.97.45,1.43v73.79h197.45Z"/><path class="cls-1" d="m225.32,185.78v171.84h-37.4v-60.29c2.88-9.81,6.01-11.58,18.7-14.65.8-.2,1.63-.39,2.5-.6,4.94-1.16,8.42-5.56,8.42-10.63s-3.49-9.47-8.42-10.64c-.87-.21-1.7-.4-2.5-.6-12.68-3.06-15.8-4.83-18.7-14.63v-59.78h37.4Z"/><rect class="cls-1" x="325.27" y="185.78" width="37.39" height="171.84"/><path class="cls-1" d="m362.5,252.74v37.39h-155.88v-7.46c.8-.2,1.63-.39,2.5-.6,4.94-1.16,8.42-5.56,8.42-10.63s-3.49-9.47-8.42-10.64c-.87-.21-1.7-.4-2.5-.6v-7.45h155.88Z"/><path class="cls-2" d="m245.77,63.11c-60.04,67.58-148.72,31.05-148.72,31.05l30.27,68.74h236.86l30.27-68.74s-88.65,36.53-148.69-31.05Z"/><path class="cls-2" d="m206.62,271.43c-22.01,5.18-26.21,9.37-31.39,31.39-5.18-22.01-9.37-26.21-31.39-31.39,22.01-5.18,26.21-9.37,31.39-31.39,5.18,22.01,9.37,26.21,31.39,31.39Z"/></svg>